<svg width="39" height="40" viewBox="0 0 39 40" fill="none" xmlns="http://www.w3.org/2000/svg">
<path d="M15.1716 26.1838H28.8137C29.3614 26.1838 29.8463 25.7582 29.8463 25.1488C29.8463 24.5416 29.3614 24.1202 28.8137 24.1202H15.432C14.8611 24.1202 14.51 23.7147 14.4214 23.1053L12.5438 10.2269C12.4097 9.21906 11.9993 8.70929 10.7007 8.70929H6.68231C6.09966 8.70929 5.59998 9.21437 5.59998 9.80335C5.59998 10.3998 6.09966 10.907 6.68231 10.907H10.3754L12.1913 23.3439C12.4501 25.1008 13.388 26.1838 15.1716 26.1838ZM13.1208 21.8917H28.9004C30.6894 21.8917 31.6316 20.8033 31.8882 19.0305L32.773 13.1371C32.7964 12.9784 32.8241 12.7825 32.8241 12.6517C32.8241 11.9837 32.3494 11.5148 31.5509 11.5148H12.0718L12.0814 13.5901H30.4206L29.6687 18.8195C29.5876 19.4406 29.2599 19.8259 28.6698 19.8259H13.1016L13.1208 21.8917ZM16.127 32.0415C17.2555 32.0415 18.1562 31.1483 18.1562 30.0102C18.1562 28.8859 17.2555 27.981 16.127 27.981C14.993 27.981 14.086 28.8859 14.086 30.0102C14.086 31.1483 14.993 32.0415 16.127 32.0415ZM26.9638 32.0415C28.0998 32.0415 29.0026 31.1483 29.0026 30.0102C29.0026 28.8859 28.0998 27.981 26.9638 27.981C25.8395 27.981 24.9249 28.8859 24.9249 30.0102C24.9249 31.1483 25.8395 32.0415 26.9638 32.0415Z" fill="#525252"/>
</svg>
