<svg width="40" height="32" viewBox="0 0 40 32" fill="none" xmlns="http://www.w3.org/2000/svg">
<path d="M40 12.0002H37.9079V13.9899H40V12.0002Z" fill="#0E0E11"/>
<path d="M40 9.99023H37.9079V12.0003H40V9.99023Z" fill="#0E0E11"/>
<path d="M40 8.00049H37.9079V9.99015H40V8.00049Z" fill="#0E0E11"/>
<path d="M40 5.99048H37.9079V8.00056H40V5.99048Z" fill="#0E0E11"/>
<path d="M37.9091 13.99H35.7956V16.0001H37.9091V13.99Z" fill="#0E0E11"/>
<path d="M37.9091 3.99976H35.7956V5.98941H37.9091V3.99976Z" fill="#0E0E11"/>
<path d="M35.7955 16H33.682V17.9897H35.7955V16Z" fill="#0E0E11"/>
<path d="M35.7955 1.98975H33.682V3.99983H35.7955V1.98975Z" fill="#0E0E11"/>
<path d="M33.682 17.9897H31.59V19.9998H33.682V17.9897Z" fill="#0E0E11"/>
<path d="M33.682 0H31.59V1.98966H33.682V0Z" fill="#0E0E11"/>
<path d="M31.5911 19.9998H29.4775V21.9894H31.5911V19.9998Z" fill="#0E0E11"/>
<path d="M31.5911 0H29.4775V1.98966H31.5911V0Z" fill="#0E0E11"/>
<path d="M29.4776 21.9905H27.3855V24.0006H29.4776V21.9905Z" fill="#0E0E11"/>
<path d="M29.4776 0H27.3855V1.98966H29.4776V0Z" fill="#0E0E11"/>
<path d="M27.3855 24.0005H25.2719V25.9901H27.3855V24.0005Z" fill="#0E0E11"/>
<path d="M27.3855 0H25.2719V1.98966H27.3855V0Z" fill="#0E0E11"/>
<path d="M25.273 25.9902H23.1595V28.0003H25.273V25.9902Z" fill="#0E0E11"/>
<path d="M25.273 1.98975H23.1595V3.99983H25.273V1.98975Z" fill="#0E0E11"/>
<path d="M23.1595 28.0002H21.0675V29.9899H23.1595V28.0002Z" fill="#0E0E11"/>
<path d="M23.1595 3.99976H21.0675V5.98941H23.1595V3.99976Z" fill="#0E0E11"/>
<path d="M21.0675 29.99H18.954V32.0001H21.0675V29.99Z" fill="#0E0E11"/>
<path d="M21.0675 5.99048H18.954V8.00056H21.0675V5.99048Z" fill="#0E0E11"/>
<path d="M18.9551 28.0002H16.8416V29.9899H18.9551V28.0002Z" fill="#0E0E11"/>
<path d="M18.9551 3.99976H16.8416V5.98941H18.9551V3.99976Z" fill="#0E0E11"/>
<path d="M16.8416 25.9902H14.7495V28.0003H16.8416V25.9902Z" fill="#0E0E11"/>
<path d="M16.8416 1.98975H14.7495V3.99983H16.8416V1.98975Z" fill="#0E0E11"/>
<path d="M14.7495 24.0005H12.636V25.9901H14.7495V24.0005Z" fill="#0E0E11"/>
<path d="M14.7495 0H12.636V1.98966H14.7495V0Z" fill="#0E0E11"/>
<path d="M12.637 21.9905H10.5235V24.0006H12.637V21.9905Z" fill="#0E0E11"/>
<path d="M12.637 0H10.5235V1.98966H12.637V0Z" fill="#0E0E11"/>
<path d="M10.5235 19.9998H8.43149V21.9894H10.5235V19.9998Z" fill="#0E0E11"/>
<path d="M10.5235 8.00049H8.43149V9.99015H10.5235V8.00049Z" fill="white"/>
<path d="M10.5235 0H8.43149V1.98966H10.5235V0Z" fill="#0E0E11"/>
<path d="M8.43158 17.9897H6.31805V19.9998H8.43158V17.9897Z" fill="#0E0E11"/>
<path d="M8.43158 9.99023H6.31805V12.0003H8.43158V9.99023Z" fill="white"/>
<path d="M8.43158 8.00049H6.31805V9.99015H8.43158V8.00049Z" fill="white"/>
<path d="M8.43158 0H6.31805V1.98966H8.43158V0Z" fill="#0E0E11"/>
<path d="M6.31795 16H4.22592V17.9897H6.31795V16Z" fill="#0E0E11"/>
<path d="M6.31795 1.98975H4.22592V3.99983H6.31795V1.98975Z" fill="#0E0E11"/>
<path d="M4.22708 13.99H2.11356V16.0001H4.22708V13.99Z" fill="#0E0E11"/>
<path d="M4.22708 3.99976H2.11356V5.98941H4.22708V3.99976Z" fill="#0E0E11"/>
<path d="M2.11352 12.0002H0V13.9899H2.11352V12.0002Z" fill="#0E0E11"/>
<path d="M2.11352 9.99011H0V12.0002H2.11352V9.99011Z" fill="#0E0E11"/>
<path d="M2.11352 8.00049H0V9.99015H2.11352V8.00049Z" fill="#0E0E11"/>
<path d="M2.11352 5.99048H0V8.00056H2.11352V5.99048Z" fill="#0E0E11"/>
</svg>
