<svg width="39" height="40" viewBox="0 0 39 40" fill="none" xmlns="http://www.w3.org/2000/svg">
<path d="M17.3076 20.5781C20.1388 20.5781 22.4334 18.0747 22.4334 15.0091C22.4334 11.9838 20.1496 9.58194 17.3076 9.58194C14.4923 9.58194 12.1776 12.0222 12.1797 15.0304C12.1914 18.0844 14.4838 20.5781 17.3076 20.5781ZM17.3076 18.5533C15.6852 18.5533 14.3048 17.0266 14.3026 15.0262C14.3005 13.0821 15.6723 11.6067 17.3076 11.6067C18.962 11.6067 20.3104 13.0629 20.3104 15.0091C20.3104 17.0074 18.9491 18.5533 17.3076 18.5533ZM10.0009 31.4686H25.0851C24.8582 31.1161 24.708 30.72 24.708 30.2876C24.6984 30.007 24.6984 29.7244 24.6888 29.4438H9.61139C9.33413 29.4438 9.2221 29.3597 9.2221 29.141C9.2221 27.3457 12.1248 23.9695 17.3076 23.9695C20.8335 23.9695 23.286 25.612 24.3813 27.1061V25.6439C23.5384 25.0108 22.9401 24.1291 22.6743 23.1452C21.1783 22.4128 19.3677 21.9447 17.3076 21.9447C11.0118 21.9447 7 26.2512 7 29.4586C7 30.8341 7.9743 31.4686 10.0009 31.4686Z" fill="#525252"/>
<path d="M27.7005 17.8645C25.6776 17.8645 24.0883 19.4751 24.0883 21.4629C24.0883 22.9661 24.9641 24.2711 26.3184 24.825V30.2107C26.3184 30.3703 26.395 30.4957 26.5056 30.6192L27.46 31.5642C27.5887 31.6886 27.7949 31.7025 27.9534 31.5558L29.7072 29.8019C29.8581 29.6489 29.8518 29.4417 29.7051 29.2908L28.69 28.2597L30.1185 26.86C30.2577 26.7112 30.2598 26.4977 30.0993 26.3276L28.7153 24.9415C30.3684 24.2374 31.3052 22.9844 31.3052 21.4629C31.3052 19.4751 29.6924 17.8645 27.7005 17.8645ZM27.6887 19.624C28.2939 19.624 28.7786 20.1236 28.7786 20.7117C28.7786 21.3361 28.2939 21.8282 27.6887 21.8282C27.0878 21.8282 26.5839 21.3361 26.5839 20.7117C26.5839 20.1236 27.0782 19.624 27.6887 19.624Z" fill="#525252"/>
</svg>
