<svg width="214" height="160" viewBox="0 0 214 160" fill="none" xmlns="http://www.w3.org/2000/svg">
<g clip-path="url(#clip0_34_8104)">
<path d="M159.84 142.222H142.08V160H159.84V142.222Z" fill="#D9BA38"/>
<path d="M142.08 142.222H124.32V160H142.08V142.222Z" fill="#D9BA38"/>
<path d="M88.8 142.222H71.04V160H88.8V142.222Z" fill="#D9BA38"/>
<path d="M71.04 142.222H53.28V160H71.04V142.222Z" fill="#D9BA38"/>
<path d="M142.08 124.444H124.32V142.222H142.08V124.444Z" fill="#D9BA38"/>
<path d="M88.8 124.444H71.04V142.222H88.8V124.444Z" fill="#D9BA38"/>
<path d="M213.12 106.667H195.36V124.445H213.12V106.667Z" fill="#197799"/>
<path d="M159.84 106.667H142.08V124.445H159.84V106.667Z" fill="#D9BA38"/>
<path d="M142.08 106.667H124.32V124.445H142.08V106.667Z" fill="#D9BA38"/>
<path d="M124.32 106.667H106.56V124.445H124.32V106.667Z" fill="#D9BA38"/>
<path d="M106.56 106.667H88.8V124.445H106.56V106.667Z" fill="#D9BA38"/>
<path d="M88.8 106.667H71.04V124.445H88.8V106.667Z" fill="#D9BA38"/>
<path d="M71.04 106.667H53.28V124.445H71.04V106.667Z" fill="#D9BA38"/>
<path d="M17.76 106.667H0V124.445H17.76V106.667Z" fill="#197799"/>
<path d="M213.12 88.8889H195.36V106.667H213.12V88.8889Z" fill="#197799"/>
<path d="M177.6 88.8889H159.84V106.667H177.6V88.8889Z" fill="#C64940"/>
<path d="M159.84 88.8889H142.08V106.667H159.84V88.8889Z" fill="#C64940"/>
<path d="M142.08 88.8889H124.32V106.667H142.08V88.8889Z" fill="#C64940"/>
<path d="M124.32 88.8889H106.56V106.667H124.32V88.8889Z" fill="#C64940"/>
<path d="M106.56 88.8889H88.8V106.667H106.56V88.8889Z" fill="#C64940"/>
<path d="M88.8 88.8889H71.04V106.667H88.8V88.8889Z" fill="#C64940"/>
<path d="M71.04 88.8889H53.28V106.667H71.04V88.8889Z" fill="#C64940"/>
<path d="M53.28 88.8889H35.52V106.667H53.28V88.8889Z" fill="#C64940"/>
<path d="M17.76 88.8889H0V106.667H17.76V88.8889Z" fill="#197799"/>
<path d="M213.12 71.1111H195.36V88.8889H213.12V71.1111Z" fill="#197799"/>
<path d="M195.36 71.1111H177.6V88.8889H195.36V71.1111Z" fill="#197799"/>
<path d="M177.6 71.1111H159.84V88.8889H177.6V71.1111Z" fill="#C64940"/>
<path d="M159.84 71.1111H142.08V88.8889H159.84V71.1111Z" fill="#C64940"/>
<path d="M124.32 71.1111H106.56V88.8889H124.32V71.1111Z" fill="#C64940"/>
<path d="M106.56 71.1111H88.8V88.8889H106.56V71.1111Z" fill="#C64940"/>
<path d="M71.04 71.1111H53.28V88.8889H71.04V71.1111Z" fill="#C64940"/>
<path d="M53.28 71.1111H35.52V88.8889H53.28V71.1111Z" fill="#C64940"/>
<path d="M35.52 71.1111H17.76V88.8889H35.52V71.1111Z" fill="#197799"/>
<path d="M17.76 71.1111H0V88.8889H17.76V71.1111Z" fill="#197799"/>
<path d="M195.36 53.3333H177.6V71.111H195.36V53.3333Z" fill="#197799"/>
<path d="M177.6 53.3333H159.84V71.111H177.6V53.3333Z" fill="#C64940"/>
<path d="M159.84 53.3333H142.08V71.111H159.84V53.3333Z" fill="#C64940"/>
<path d="M142.08 53.3333H124.32V71.111H142.08V53.3333Z" fill="#C64940"/>
<path d="M124.32 53.3333H106.56V71.111H124.32V53.3333Z" fill="#C64940"/>
<path d="M106.56 53.3333H88.8V71.111H106.56V53.3333Z" fill="#C64940"/>
<path d="M88.8 53.3335H71.04V71.1113H88.8V53.3335Z" fill="#C64940"/>
<path d="M71.04 53.3333H53.28V71.111H71.04V53.3333Z" fill="#C64940"/>
<path d="M53.28 53.3333H35.52V71.111H53.28V53.3333Z" fill="#C64940"/>
<path d="M35.52 53.3333H17.76V71.111H35.52V53.3333Z" fill="#197799"/>
<path d="M177.6 35.5557H159.84V53.3334H177.6V35.5557Z" fill="#197799"/>
<path d="M159.84 35.5557H142.08V53.3334H159.84V35.5557Z" fill="#197799"/>
<path d="M142.08 35.5557H124.32V53.3334H142.08V35.5557Z" fill="#197799"/>
<path d="M124.32 35.5557H106.56V53.3334H124.32V35.5557Z" fill="#197799"/>
<path d="M106.56 35.5557H88.8V53.3334H106.56V35.5557Z" fill="#197799"/>
<path d="M88.8 35.5557H71.04V53.3334H88.8V35.5557Z" fill="#197799"/>
<path d="M71.04 35.5557H53.28V53.3334H71.04V35.5557Z" fill="#197799"/>
<path d="M53.28 35.5557H35.52V53.3334H53.28V35.5557Z" fill="#197799"/>
<path d="M159.84 17.7778H142.08V35.5556H159.84V17.7778Z" fill="#197799"/>
<path d="M71.04 17.7778H53.28V35.5556H71.04V17.7778Z" fill="#197799"/>
<path d="M159.84 0H142.08V17.7778H159.84V0Z" fill="#197799"/>
<path d="M142.08 0H124.32V17.7778H142.08V0Z" fill="#197799"/>
<path d="M88.8 0H71.04V17.7778H88.8V0Z" fill="#197799"/>
<path d="M71.04 0H53.28V17.7778H71.04V0Z" fill="#197799"/>
</g>
<defs>
<clipPath id="clip0_34_8104">
<rect width="213.12" height="160" fill="white"/>
</clipPath>
</defs>
</svg>
