<svg width="39" height="40" viewBox="0 0 39 40" fill="none" xmlns="http://www.w3.org/2000/svg">
<path d="M10.5116 32.1329C12.1358 32.1329 15.423 30.5561 17.8947 28.7872C26.1639 28.9403 32.3329 24.1705 32.3329 17.9139C32.3329 11.8717 26.3022 7 18.7675 7C11.2307 7 5.19995 11.8717 5.19995 17.9139C5.19995 21.7576 7.59972 25.1973 11.2712 26.98C10.7671 27.9299 9.86706 29.2473 9.35448 29.9219C8.61527 30.9025 9.12737 32.1329 10.5116 32.1329ZM11.9108 29.7616C11.7685 29.8157 11.7144 29.7348 11.8088 29.6085C12.4081 28.8674 13.3077 27.6993 13.7356 26.9008C14.087 26.2492 13.9649 25.6848 13.2106 25.3269C9.62798 23.6498 7.55446 20.9699 7.55446 17.9139C7.55446 13.1915 12.5291 9.34491 18.7675 9.34491C25.0134 9.34491 29.988 13.1915 29.988 17.9139C29.988 22.6267 25.0134 26.4733 18.7675 26.4733C18.55 26.4733 18.2247 26.4637 17.8108 26.4541C17.3101 26.4541 16.933 26.6001 16.4666 26.9706C15.0547 28.0136 12.9561 29.3385 11.9108 29.7616Z" fill="#525252"/>
<path d="M13.3234 19.7725C14.2925 19.7725 15.0816 18.9737 15.0816 18.0025C15.0816 17.0312 14.2829 16.2421 13.3234 16.2421C12.3383 16.2421 11.5513 17.0312 11.5513 18.0025C11.5513 18.9737 12.3383 19.7725 13.3234 19.7725Z" fill="#525252"/>
<path d="M18.7612 19.7725C19.7324 19.7725 20.5332 18.9737 20.5332 18.0025C20.5332 17.0312 19.7324 16.2421 18.7612 16.2421C17.7899 16.2421 16.9911 17.0312 16.9911 18.0025C16.9911 18.9737 17.7899 19.7725 18.7612 19.7725Z" fill="#525252"/>
<path d="M24.2105 19.7725C25.1839 19.7725 25.9709 18.9737 25.9709 18.0025C25.9709 17.0312 25.1839 16.2421 24.2105 16.2421C23.2297 16.2421 22.4426 17.0312 22.4426 18.0025C22.4426 18.9737 23.2297 19.7725 24.2105 19.7725Z" fill="#525252"/>
</svg>
